<?xml version="1.0" standalone="no"?>
<!DOCTYPE svg PUBLIC "-//W3C//DTD SVG 20010904//EN"
 "http://www.w3.org/TR/2001/REC-SVG-20010904/DTD/svg10.dtd">
<svg version="1.0" xmlns="http://www.w3.org/2000/svg"
 width="331.000000pt" height="277.000000pt" viewBox="0 0 331.000000 277.000000"
 preserveAspectRatio="xMidYMid meet">

<g transform="translate(0.000000,277.000000) scale(0.100000,-0.100000)"
fill="#000000" stroke="none">
<path d="M1415 2394 c-22 -34 -14 -40 14 -10 12 13 18 27 13 30 -5 3 -17 -6
-27 -20z"/>
<path d="M1495 2336 c-23 -35 -55 -122 -55 -149 0 -21 1 -21 13 3 11 21 19 25
57 23 34 -2 48 -8 66 -30 12 -15 25 -25 29 -22 8 8 -20 119 -42 165 -20 40
-46 44 -68 10z m53 -63 c3 -31 1 -33 -27 -33 -37 0 -44 11 -31 45 15 40 54 31
58 -12z"/>
<path d="M1205 2332 c-88 -30 -88 -29 -72 -103 18 -83 34 -114 52 -99 7 6 11
20 8 30 -6 23 6 25 53 8 23 -8 39 -9 56 -1 22 10 22 11 -14 26 -21 9 -38 19
-38 24 0 4 19 24 42 43 35 31 40 40 34 63 -5 23 -12 27 -39 26 -17 0 -55 -8
-82 -17z m85 -31 c0 -21 -50 -68 -89 -83 -29 -11 -51 10 -51 49 0 18 8 24 43
33 23 6 47 13 52 15 27 9 45 4 45 -14z"/>
<path d="M1385 2327 c-7 -17 1 -146 11 -156 13 -13 15 17 7 91 -6 57 -12 77
-18 65z"/>
<path d="M967 2240 l-56 -41 41 -84 42 -83 40 28 c45 31 92 77 85 84 -2 3 -29
-11 -59 -30 -62 -39 -66 -40 -75 -16 -5 12 8 30 47 65 l53 49 -47 -31 c-49
-32 -72 -38 -83 -20 -14 21 7 60 47 89 22 17 37 30 31 30 -5 0 -35 -18 -66
-40z"/>
<path d="M860 2151 c0 -11 78 -129 91 -136 22 -14 6 21 -37 81 -45 63 -54 72
-54 55z"/>
<path d="M1351 2115 c-192 -42 -333 -119 -487 -267 -138 -132 -224 -275 -265
-437 -30 -119 -24 -315 13 -412 49 -132 155 -246 290 -315 188 -95 521 -120
800 -60 498 107 988 326 1168 523 65 71 94 134 95 203 0 45 -3 55 -19 58 -10
2 -22 -2 -27 -10 -6 -10 -9 -10 -9 0 0 6 -7 12 -15 12 -8 0 -15 -7 -15 -16 0
-109 -137 -238 -385 -362 -267 -133 -711 -277 -1010 -328 -232 -39 -461 24
-603 166 -100 100 -142 207 -142 360 0 134 35 253 108 370 167 268 438 434
679 417 140 -10 273 -104 337 -237 29 -62 31 -71 31 -185 0 -118 -1 -121 -37
-198 -58 -122 -154 -212 -245 -232 -29 -6 -34 -3 -53 27 -27 44 -25 94 5 154
14 27 25 50 25 50 0 7 -118 88 -160 109 -180 91 -423 -3 -516 -200 -50 -105
-23 -250 59 -322 41 -36 84 -47 172 -47 73 1 123 24 200 94 31 28 62 50 71 50
8 0 34 -10 57 -22 35 -19 58 -23 132 -23 79 0 97 3 149 29 107 53 210 179 263
324 31 82 42 231 24 324 -36 185 -175 347 -342 399 -74 23 -250 25 -348 4z
m-81 -720 c8 -10 11 -36 8 -74 -4 -54 -3 -59 13 -50 25 13 27 12 24 -15 -7
-63 -135 -196 -187 -196 -37 0 -83 46 -92 91 -15 75 58 184 156 233 61 30 62
31 78 11z"/>
<path d="M811 2103 c7 -10 26 -33 43 -51 18 -19 26 -35 20 -41 -5 -5 -40 -5
-83 1 -41 5 -78 7 -83 6 -5 -2 8 -19 28 -38 20 -19 34 -29 30 -22 -5 9 10 12
66 12 108 0 111 6 43 84 -32 36 -63 66 -68 66 -5 0 -4 -8 4 -17z"/>
<path d="M600 1933 c-36 -56 -45 -83 -33 -92 5 -3 37 -28 71 -54 l61 -48 24
38 c26 41 50 104 43 111 -3 2 -21 -21 -41 -51 -24 -36 -42 -54 -51 -50 -19 7
-18 23 6 83 24 60 18 66 -10 10 -24 -46 -43 -58 -66 -40 -18 16 -11 59 17 108
28 49 13 38 -21 -15z"/>
<path d="M2290 1865 l0 -75 75 0 75 0 0 75 0 75 -75 0 -75 0 0 -75z"/>
<path d="M795 1910 c10 -11 20 -20 23 -20 3 0 -3 9 -13 20 -10 11 -20 20 -23
20 -3 0 3 -9 13 -20z"/>
<path d="M477 1761 c-48 -82 28 -211 108 -181 33 12 69 87 59 125 -7 28 -51
68 -65 59 -17 -10 -40 -65 -37 -87 4 -19 7 -17 23 16 12 23 25 37 35 35 23 -5
23 -49 0 -86 -17 -28 -26 -33 -52 -30 -60 6 -96 101 -55 146 18 20 22 32 9 32
-4 0 -15 -13 -25 -29z"/>
<path d="M2110 1705 l0 -55 55 0 55 0 0 55 0 55 -55 0 -55 0 0 -55z"/>
<path d="M2450 1665 l0 -55 55 0 55 0 0 55 0 55 -55 0 -55 0 0 -55z"/>
<path d="M2630 1630 l0 -80 75 0 75 0 0 80 0 80 -75 0 -75 0 0 -80z"/>
<path d="M2230 1530 l0 -80 75 0 75 0 0 80 0 80 -75 0 -75 0 0 -80z"/>
<path d="M400 1583 c0 -5 26 -18 58 -30 31 -11 58 -26 60 -34 2 -10 -24 -24
-79 -43 l-81 -29 58 -23 c31 -13 59 -22 61 -20 3 2 -5 7 -17 11 -17 5 -19 10
-9 21 6 8 17 14 23 14 16 0 106 57 106 67 0 5 -35 21 -77 37 -106 40 -103 39
-103 29z"/>
<path d="M2720 1445 l0 -55 60 0 60 0 0 55 0 55 -60 0 -60 0 0 -55z"/>
<path d="M2470 1405 l0 -55 55 0 55 0 0 55 0 55 -55 0 -55 0 0 -55z"/>
<path d="M350 1387 c19 -19 148 -58 155 -47 3 5 -27 19 -66 30 -39 12 -79 24
-88 27 -14 5 -14 4 -1 -10z"/>
<path d="M490 1396 c0 -2 7 -7 16 -10 8 -3 12 -2 9 4 -6 10 -25 14 -25 6z"/>
<path d="M2060 1371 c0 -11 -5 -21 -10 -23 -7 -2 -10 -55 -8 -146 l3 -143 54
55 54 55 -47 12 c-26 6 -45 16 -44 21 4 12 291 149 297 142 5 -5 -132 -304
-140 -304 -3 0 -12 20 -20 45 l-14 46 -55 -56 -54 -55 142 0 c135 0 142 1 142
20 0 11 7 20 15 20 13 0 15 25 15 165 l0 165 -165 0 c-156 0 -165 -1 -165 -19z"/>
<path d="M2890 1007 c0 -4 9 -16 20 -27 17 -17 18 -24 10 -41 -15 -28 -52 -21
-61 11 -6 21 -7 22 -8 5 -2 -47 43 -59 76 -21 l21 24 -29 28 c-16 15 -29 25
-29 21z"/>
<path d="M2798 913 c6 -2 18 -2 25 0 6 3 1 5 -13 5 -14 0 -19 -2 -12 -5z"/>
<path d="M2831 857 c-13 -21 -12 -21 5 -5 10 10 16 20 13 22 -3 3 -11 -5 -18
-17z"/>
<path d="M2670 858 c0 -9 7 -22 17 -29 15 -13 15 -12 3 11 -17 34 -20 36 -20
18z"/>
<path d="M2720 865 c0 -5 10 -21 21 -35 13 -17 17 -18 10 -5 -17 33 -31 51
-31 40z"/>
<path d="M2595 799 c-11 -16 -1 -19 13 -3 7 8 8 14 3 14 -5 0 -13 -5 -16 -11z"/>
<path d="M2706 797 c3 -10 9 -15 12 -12 3 3 0 11 -7 18 -10 9 -11 8 -5 -6z"/>
<path d="M2660 770 c0 -27 -27 -37 -54 -20 -19 12 -20 12 -7 -3 17 -21 45 -22
61 -2 7 8 17 12 22 9 6 -4 5 3 -1 15 -15 26 -21 27 -21 1z"/>
<path d="M2540 750 c11 -11 20 -25 20 -32 0 -6 3 -8 6 -5 8 8 -23 57 -36 57
-6 0 -1 -9 10 -20z"/>
<path d="M2470 746 c0 -2 7 -9 15 -16 9 -7 15 -8 15 -2 0 5 -7 12 -15 16 -8 3
-15 4 -15 2z"/>
<path d="M2436 707 c3 -10 9 -15 12 -12 3 3 0 11 -7 18 -10 9 -11 8 -5 -6z"/>
<path d="M2380 703 c0 -4 5 -15 10 -23 8 -13 10 -13 10 2 0 9 -4 20 -10 23 -5
3 -10 3 -10 -2z"/>
<path d="M2234 675 c-4 -8 -3 -23 0 -32 6 -15 8 -15 16 -3 6 9 5 17 -2 21 -6
4 -7 12 -4 18 4 6 5 11 1 11 -3 0 -8 -7 -11 -15z"/>
<path d="M2295 669 c-4 -6 -5 -12 -2 -15 2 -3 7 2 10 11 7 17 1 20 -8 4z"/>
<path d="M2355 645 c0 -18 3 -31 8 -28 4 2 7 15 7 28 0 13 -3 26 -7 28 -5 3
-8 -10 -8 -28z"/>
<path d="M2450 671 c0 -6 4 -13 10 -16 6 -3 7 1 4 9 -7 18 -14 21 -14 7z"/>
<path d="M2400 651 c0 -6 4 -13 10 -16 6 -3 7 1 4 9 -7 18 -14 21 -14 7z"/>
<path d="M730 632 c-19 -6 -39 -33 -40 -50 0 -7 15 -19 33 -27 31 -14 33 -13
54 13 13 15 23 29 23 32 0 12 -56 37 -70 32z"/>
<path d="M2152 618 c-7 -7 -12 -16 -12 -22 0 -5 6 -2 14 9 8 12 20 16 35 12
11 -3 19 -1 15 4 -8 13 -38 11 -52 -3z"/>
<path d="M2302 614 c9 -9 21 -15 27 -13 6 2 -2 10 -17 17 -25 11 -25 11 -10
-4z"/>
<path d="M825 549 c-4 -6 -5 -12 -2 -15 2 -3 7 2 10 11 7 17 1 20 -8 4z"/>
<path d="M1980 519 c0 -5 5 -7 10 -4 6 3 10 8 10 11 0 2 -4 4 -10 4 -5 0 -10
-5 -10 -11z"/>
<path d="M926 511 c-3 -4 6 -6 19 -3 14 2 25 6 25 8 0 8 -39 4 -44 -5z"/>
<path d="M1832 500 c0 -14 2 -19 5 -12 2 6 2 18 0 25 -3 6 -5 1 -5 -13z"/>
<path d="M1791 483 c7 -12 15 -20 18 -17 3 2 -3 12 -13 22 -17 16 -18 16 -5
-5z"/>
<path d="M1901 484 c0 -11 3 -14 6 -6 3 7 2 16 -1 19 -3 4 -6 -2 -5 -13z"/>
<path d="M987 471 c-5 -19 -11 -23 -36 -19 -16 2 -28 1 -25 -4 16 -26 81 5 72
34 -3 7 -7 2 -11 -11z"/>
<path d="M1037 483 c-2 -4 -7 -24 -11 -43 l-6 -35 15 39 c13 35 15 61 2 39z"/>
<path d="M1073 479 c14 -8 16 -19 12 -47 l-5 -37 11 33 c10 35 -1 62 -25 62
-6 0 -3 -5 7 -11z"/>
<path d="M1410 475 c-3 -31 1 -66 11 -89 5 -14 6 -7 2 22 -4 32 -2 42 8 42 9
0 10 3 3 8 -6 4 -14 14 -17 22 -4 11 -6 10 -7 -5z"/>
<path d="M1720 461 c0 -11 4 -22 9 -25 4 -3 6 6 3 19 -5 30 -12 33 -12 6z"/>
<path d="M1142 430 c-1 -22 0 -40 2 -40 7 0 12 60 6 70 -4 6 -7 -7 -8 -30z"/>
<path d="M1535 431 c2 -24 6 -46 9 -49 10 -9 6 62 -4 78 -7 10 -8 2 -5 -29z"/>
<path d="M1682 450 c0 -14 2 -19 5 -12 2 6 2 18 0 25 -3 6 -5 1 -5 -13z"/>
<path d="M1191 413 c0 -26 3 -42 6 -35 2 6 10 9 16 5 7 -4 6 1 -2 10 -7 9 -11
26 -8 37 3 11 1 23 -4 26 -5 3 -9 -16 -8 -43z"/>
<path d="M1228 453 c7 -3 16 -2 19 1 4 3 -2 6 -13 5 -11 0 -14 -3 -6 -6z"/>
<path d="M1313 420 c0 -25 2 -35 4 -22 2 12 2 32 0 45 -2 12 -4 2 -4 -23z"/>
<path d="M1368 419 c-2 -22 0 -43 4 -45 4 -3 8 15 8 40 0 57 -7 60 -12 5z"/>
<path d="M1472 448 c-27 -27 -2 -74 35 -65 14 4 13 5 -5 6 -28 1 -39 27 -23
52 13 22 10 24 -7 7z"/>
<path d="M1574 446 c-3 -8 -1 -22 4 -32 7 -13 9 -10 8 15 -1 34 -4 38 -12 17z"/>
<path d="M1770 434 c-17 -9 -20 -14 -9 -14 9 0 22 7 29 15 15 18 13 18 -20 -1z"/>
<path d="M1252 394 c-7 -8 -8 -14 -3 -14 10 0 25 19 20 25 -2 1 -10 -3 -17
-11z"/>
<path d="M1608 393 c7 -3 16 -2 19 1 4 3 -2 6 -13 5 -11 0 -14 -3 -6 -6z"/>
</g>
</svg>
